<svg version="1.1" id="Layer_1" xmlns="http://www.w3.org/2000/svg" xmlns:xlink="http://www.w3.org/1999/xlink" x="0px" y="0px"
	 width="100%" viewBox="0 0 592 592" enableBackground="new 0 0 592 592" xml:space="preserve">
<path fill="#000000" opacity="1.000000" stroke="none" 
	d="
M260.139282,407.040527 
	C219.927887,390.067657 195.609634,360.424255 188.910706,317.728363 
	C183.265259,281.746948 193.868134,250.095261 219.487534,221.724869 
	C228.910370,251.791779 237.912109,280.515045 247.194992,310.135376 
	C250.307892,303.940979 251.747253,298.196228 253.625214,292.625092 
	C256.178070,285.051788 258.751190,277.481384 261.072693,269.835999 
	C261.994476,266.800354 263.497528,265.300323 266.747131,265.636902 
	C268.395813,265.807648 270.098480,265.835754 271.739044,265.629150 
	C275.367767,265.172180 277.116486,266.751434 278.188751,270.194763 
	C281.702118,281.477264 285.492950,292.673248 289.170135,303.904785 
	C289.780487,305.769104 290.162140,307.732208 291.967621,309.825287 
	C295.143066,299.578461 298.188019,289.756653 301.229187,279.933716 
	C301.573792,278.820587 301.894867,277.700195 302.231018,276.584473 
	C305.754150,264.890411 309.204529,263.104462 322.331085,266.704071 
	C319.865631,274.096619 317.434723,281.474335 314.944977,288.832153 
	C310.142212,303.025513 305.179779,317.166687 300.568939,331.421814 
	C299.347198,335.198975 297.679535,337.176636 293.541351,336.431580 
	C292.249512,336.199036 290.860199,336.235291 289.552307,336.415588 
	C285.670258,336.950775 283.926849,335.044464 282.768555,331.522644 
	C278.971954,319.979126 274.918427,308.520050 270.953949,297.031891 
	C270.578522,295.943970 270.134979,294.879578 269.335419,292.792297 
	C265.007111,305.266357 260.994202,316.836426 256.977692,328.405273 
	C254.277771,336.181976 249.475067,338.598297 241.642181,336.268250 
	C239.435974,335.611938 239.174759,333.770660 238.615067,332.078308 
	C230.982529,308.999542 223.371597,285.913605 215.740448,262.834381 
	C215.120895,260.960663 214.392502,259.122925 213.410889,256.437195 
	C208.613068,264.098602 206.315430,271.831207 204.571579,279.682068 
	C192.381485,334.562103 228.878922,388.883575 284.263763,398.454315 
	C324.742859,405.449280 364.874512,386.656677 386.336426,350.656281 
	C392.118896,340.956757 394.025574,340.144379 406.672638,342.735962 
	C394.728882,371.656281 374.981110,392.522644 346.634430,404.941528 
	C318.347015,417.334503 289.504517,417.668335 260.139282,407.040527 
z"/>
<path fill="#000000" opacity="1.000000" stroke="none" 
	d="
M250.936249,215.957306 
	C243.098038,220.420563 236.624969,226.116104 229.881363,232.300919 
	C226.997955,227.578720 225.868546,222.945953 224.953430,218.302307 
	C224.538834,216.198517 226.700882,215.196869 228.032928,214.067459 
	C244.733017,199.907944 263.941925,191.029892 285.690155,188.700378 
	C335.044708,183.413818 373.468903,201.876724 399.305664,244.208694 
	C415.702637,271.074097 418.169373,300.550812 410.653961,330.977295 
	C409.701324,334.834045 407.954132,336.354645 403.796417,336.319031 
	C381.639008,336.129120 359.477692,336.111267 337.320953,336.343292 
	C332.266205,336.396210 330.684204,334.753510 330.748810,329.745575 
	C330.998077,310.421875 331.017151,291.091980 330.807770,271.767792 
	C330.754517,266.852783 332.516510,265.470123 337.205597,265.605225 
	C348.548737,265.931976 347.288483,264.387360 347.336395,275.824951 
	C347.391541,288.986877 347.463013,302.150635 347.290009,315.310516 
	C347.236603,319.370575 348.569794,320.964081 352.743225,320.912445 
	C366.236481,320.745514 379.733948,320.779755 393.228058,320.912903 
	C396.844940,320.948578 398.188721,319.337128 398.693542,315.981415 
	C406.414612,264.654968 373.176300,216.087860 322.526459,204.780853 
	C297.333923,199.156906 273.621887,203.123199 250.936249,215.957306 
z"/>
</svg>